<mxfile host="app.diagrams.net" agent="Mozilla/5.0 (Windows NT 10.0; Win64; x64) AppleWebKit/537.36 (KHTML, like Gecko) Chrome/131.0.0.0 Safari/537.36" version="25.0.3">
  <diagram name="Page-1" id="UIS6s0Z7no9ET_pwSi9W">
    <mxGraphModel dx="1050" dy="557" grid="1" gridSize="10" guides="1" tooltips="1" connect="1" arrows="1" fold="1" page="1" pageScale="1" pageWidth="850" pageHeight="1100" math="0" shadow="0">
      <root>
        <mxCell id="0" />
        <mxCell id="1" parent="0" />
        <mxCell id="izeX7NdQ2_mp5u6DSLp3-1" style="edgeStyle=orthogonalEdgeStyle;rounded=0;orthogonalLoop=1;jettySize=auto;html=1;entryX=0.5;entryY=0;entryDx=0;entryDy=0;" parent="1" source="izeX7NdQ2_mp5u6DSLp3-2" target="izeX7NdQ2_mp5u6DSLp3-14" edge="1">
          <mxGeometry relative="1" as="geometry">
            <Array as="points">
              <mxPoint x="500" y="250" />
              <mxPoint x="500" y="140" />
              <mxPoint x="740" y="140" />
            </Array>
          </mxGeometry>
        </mxCell>
        <mxCell id="izeX7NdQ2_mp5u6DSLp3-2" value="0" style="swimlane;fontStyle=0;childLayout=stackLayout;horizontal=1;startSize=20;fillColor=#f5f5f5;horizontalStack=0;resizeParent=1;resizeParentMax=0;resizeLast=0;collapsible=0;marginBottom=0;swimlaneFillColor=#ffffff;fontColor=#333333;strokeColor=#666666;" parent="1" vertex="1">
          <mxGeometry x="390" y="211" width="100" height="100" as="geometry" />
        </mxCell>
        <mxCell id="izeX7NdQ2_mp5u6DSLp3-3" value="Online Wedding planners company System&amp;nbsp;" style="text;html=1;align=center;verticalAlign=middle;whiteSpace=wrap;rounded=0;fillColor=#f5f5f5;fontColor=#333333;strokeColor=#666666;" parent="izeX7NdQ2_mp5u6DSLp3-2" vertex="1">
          <mxGeometry y="20" width="100" height="80" as="geometry" />
        </mxCell>
        <mxCell id="izeX7NdQ2_mp5u6DSLp3-5" style="edgeStyle=orthogonalEdgeStyle;rounded=0;orthogonalLoop=1;jettySize=auto;html=1;exitX=1;exitY=0.5;exitDx=0;exitDy=0;entryX=0;entryY=0.25;entryDx=0;entryDy=0;" parent="1" source="izeX7NdQ2_mp5u6DSLp3-9" target="izeX7NdQ2_mp5u6DSLp3-3" edge="1">
          <mxGeometry relative="1" as="geometry">
            <Array as="points">
              <mxPoint x="220" y="251" />
            </Array>
          </mxGeometry>
        </mxCell>
        <mxCell id="izeX7NdQ2_mp5u6DSLp3-6" style="edgeStyle=orthogonalEdgeStyle;rounded=0;orthogonalLoop=1;jettySize=auto;html=1;entryX=0.5;entryY=0;entryDx=0;entryDy=0;" parent="1" source="izeX7NdQ2_mp5u6DSLp3-9" target="izeX7NdQ2_mp5u6DSLp3-2" edge="1">
          <mxGeometry relative="1" as="geometry">
            <Array as="points">
              <mxPoint x="170" y="191" />
              <mxPoint x="440" y="191" />
            </Array>
          </mxGeometry>
        </mxCell>
        <mxCell id="izeX7NdQ2_mp5u6DSLp3-9" value="Client&amp;nbsp;" style="html=1;dashed=0;whiteSpace=wrap;fillColor=#e1d5e7;strokeColor=#9673a6;" parent="1" vertex="1">
          <mxGeometry x="120" y="200" width="100" height="50" as="geometry" />
        </mxCell>
        <mxCell id="izeX7NdQ2_mp5u6DSLp3-11" value="Staff&amp;nbsp;" style="html=1;dashed=0;whiteSpace=wrap;fillColor=#e1d5e7;strokeColor=#9673a6;" parent="1" vertex="1">
          <mxGeometry x="490" y="490" width="130" height="50" as="geometry" />
        </mxCell>
        <mxCell id="izeX7NdQ2_mp5u6DSLp3-61" style="edgeStyle=orthogonalEdgeStyle;rounded=0;orthogonalLoop=1;jettySize=auto;html=1;entryX=1;entryY=0.5;entryDx=0;entryDy=0;" parent="1" source="izeX7NdQ2_mp5u6DSLp3-14" target="izeX7NdQ2_mp5u6DSLp3-3" edge="1">
          <mxGeometry relative="1" as="geometry" />
        </mxCell>
        <mxCell id="izeX7NdQ2_mp5u6DSLp3-14" value="Owner&amp;nbsp;" style="html=1;dashed=0;whiteSpace=wrap;fillColor=#e1d5e7;strokeColor=#9673a6;" parent="1" vertex="1">
          <mxGeometry x="690" y="181" width="100" height="50" as="geometry" />
        </mxCell>
        <mxCell id="izeX7NdQ2_mp5u6DSLp3-15" value="Registration&amp;nbsp;" style="text;html=1;align=center;verticalAlign=middle;whiteSpace=wrap;rounded=0;" parent="1" vertex="1">
          <mxGeometry x="250" y="160" width="80" height="30" as="geometry" />
        </mxCell>
        <mxCell id="izeX7NdQ2_mp5u6DSLp3-20" style="edgeStyle=orthogonalEdgeStyle;rounded=0;orthogonalLoop=1;jettySize=auto;html=1;entryX=0.25;entryY=1;entryDx=0;entryDy=0;" parent="1" source="izeX7NdQ2_mp5u6DSLp3-3" target="izeX7NdQ2_mp5u6DSLp3-9" edge="1">
          <mxGeometry relative="1" as="geometry">
            <Array as="points">
              <mxPoint x="410" y="330" />
              <mxPoint x="145" y="330" />
            </Array>
          </mxGeometry>
        </mxCell>
        <mxCell id="izeX7NdQ2_mp5u6DSLp3-33" style="edgeStyle=orthogonalEdgeStyle;rounded=0;orthogonalLoop=1;jettySize=auto;html=1;exitX=0.5;exitY=1;exitDx=0;exitDy=0;" parent="1" edge="1">
          <mxGeometry relative="1" as="geometry">
            <mxPoint x="420" y="270" as="sourcePoint" />
            <mxPoint x="420" y="270" as="targetPoint" />
          </mxGeometry>
        </mxCell>
        <mxCell id="izeX7NdQ2_mp5u6DSLp3-44" style="edgeStyle=orthogonalEdgeStyle;rounded=0;orthogonalLoop=1;jettySize=auto;html=1;entryX=1;entryY=0.5;entryDx=0;entryDy=0;" parent="1" source="izeX7NdQ2_mp5u6DSLp3-3" target="izeX7NdQ2_mp5u6DSLp3-14" edge="1">
          <mxGeometry relative="1" as="geometry">
            <Array as="points">
              <mxPoint x="810" y="290" />
              <mxPoint x="810" y="206" />
            </Array>
          </mxGeometry>
        </mxCell>
        <mxCell id="izeX7NdQ2_mp5u6DSLp3-47" value="&lt;font style=&quot;font-size: 15px;&quot;&gt;cancelation&lt;/font&gt;" style="text;html=1;align=center;verticalAlign=middle;whiteSpace=wrap;rounded=0;" parent="1" vertex="1">
          <mxGeometry x="220" y="300" width="60" height="30" as="geometry" />
        </mxCell>
        <mxCell id="izeX7NdQ2_mp5u6DSLp3-48" style="edgeStyle=orthogonalEdgeStyle;rounded=0;orthogonalLoop=1;jettySize=auto;html=1;entryX=0.5;entryY=1;entryDx=0;entryDy=0;" parent="1" source="izeX7NdQ2_mp5u6DSLp3-3" target="izeX7NdQ2_mp5u6DSLp3-9" edge="1">
          <mxGeometry relative="1" as="geometry">
            <Array as="points">
              <mxPoint x="170" y="290" />
            </Array>
          </mxGeometry>
        </mxCell>
        <mxCell id="izeX7NdQ2_mp5u6DSLp3-49" value="&lt;font style=&quot;font-size: 15px;&quot;&gt;receipt&lt;/font&gt;" style="text;html=1;align=center;verticalAlign=middle;whiteSpace=wrap;rounded=0;" parent="1" vertex="1">
          <mxGeometry x="250" y="260" width="60" height="30" as="geometry" />
        </mxCell>
        <mxCell id="izeX7NdQ2_mp5u6DSLp3-50" value="&lt;font style=&quot;font-size: 13px;&quot;&gt;checking avaliable&lt;/font&gt;" style="text;html=1;align=center;verticalAlign=middle;whiteSpace=wrap;rounded=0;" parent="1" vertex="1">
          <mxGeometry x="235" y="230" width="110" height="30" as="geometry" />
        </mxCell>
        <mxCell id="izeX7NdQ2_mp5u6DSLp3-51" style="edgeStyle=orthogonalEdgeStyle;rounded=0;orthogonalLoop=1;jettySize=auto;html=1;entryX=-0.01;entryY=0.16;entryDx=0;entryDy=0;entryPerimeter=0;" parent="1" source="izeX7NdQ2_mp5u6DSLp3-9" target="izeX7NdQ2_mp5u6DSLp3-2" edge="1">
          <mxGeometry relative="1" as="geometry">
            <Array as="points">
              <mxPoint x="260" y="227" />
              <mxPoint x="260" y="227" />
            </Array>
          </mxGeometry>
        </mxCell>
        <mxCell id="izeX7NdQ2_mp5u6DSLp3-52" value="&lt;font style=&quot;font-size: 13px;&quot;&gt;&lt;font style=&quot;&quot;&gt;design&amp;nbsp; preference&lt;/font&gt;&amp;nbsp;&lt;/font&gt;" style="text;html=1;align=center;verticalAlign=middle;whiteSpace=wrap;rounded=0;" parent="1" vertex="1">
          <mxGeometry x="230" y="200" width="120" height="30" as="geometry" />
        </mxCell>
        <mxCell id="izeX7NdQ2_mp5u6DSLp3-55" style="edgeStyle=orthogonalEdgeStyle;rounded=0;orthogonalLoop=1;jettySize=auto;html=1;entryX=0.5;entryY=1;entryDx=0;entryDy=0;" parent="1" source="izeX7NdQ2_mp5u6DSLp3-53" target="izeX7NdQ2_mp5u6DSLp3-3" edge="1">
          <mxGeometry relative="1" as="geometry" />
        </mxCell>
        <mxCell id="izeX7NdQ2_mp5u6DSLp3-53" value="&lt;span style=&quot;font-size: 17px;&quot;&gt;Billing Department&lt;/span&gt;" style="html=1;dashed=0;whiteSpace=wrap;fillColor=#e1d5e7;strokeColor=#9673a6;" parent="1" vertex="1">
          <mxGeometry x="70" y="500" width="150" height="50" as="geometry" />
        </mxCell>
        <mxCell id="izeX7NdQ2_mp5u6DSLp3-54" style="edgeStyle=orthogonalEdgeStyle;rounded=0;orthogonalLoop=1;jettySize=auto;html=1;entryX=0.687;entryY=-0.007;entryDx=0;entryDy=0;entryPerimeter=0;" parent="1" source="izeX7NdQ2_mp5u6DSLp3-3" target="izeX7NdQ2_mp5u6DSLp3-53" edge="1">
          <mxGeometry relative="1" as="geometry">
            <Array as="points">
              <mxPoint x="420" y="400" />
              <mxPoint x="173" y="400" />
            </Array>
          </mxGeometry>
        </mxCell>
        <mxCell id="izeX7NdQ2_mp5u6DSLp3-56" value="&lt;font style=&quot;font-size: 15px;&quot;&gt;service cost&amp;nbsp;&lt;/font&gt;" style="text;html=1;align=center;verticalAlign=middle;whiteSpace=wrap;rounded=0;" parent="1" vertex="1">
          <mxGeometry x="235" y="490" width="110" height="30" as="geometry" />
        </mxCell>
        <mxCell id="izeX7NdQ2_mp5u6DSLp3-57" value="&lt;font style=&quot;font-size: 15px;&quot;&gt;payment calculations&lt;/font&gt;" style="text;html=1;align=center;verticalAlign=middle;whiteSpace=wrap;rounded=0;" parent="1" vertex="1">
          <mxGeometry x="230" y="370" width="160" height="30" as="geometry" />
        </mxCell>
        <mxCell id="izeX7NdQ2_mp5u6DSLp3-58" style="edgeStyle=orthogonalEdgeStyle;rounded=0;orthogonalLoop=1;jettySize=auto;html=1;entryX=0.75;entryY=0;entryDx=0;entryDy=0;" parent="1" source="izeX7NdQ2_mp5u6DSLp3-3" target="izeX7NdQ2_mp5u6DSLp3-11" edge="1">
          <mxGeometry relative="1" as="geometry">
            <Array as="points">
              <mxPoint x="480" y="401" />
              <mxPoint x="588" y="401" />
            </Array>
          </mxGeometry>
        </mxCell>
        <mxCell id="izeX7NdQ2_mp5u6DSLp3-59" value="&lt;font style=&quot;font-size: 15px;&quot;&gt;preprating design&amp;nbsp;&lt;/font&gt;" style="text;html=1;align=center;verticalAlign=middle;whiteSpace=wrap;rounded=0;" parent="1" vertex="1">
          <mxGeometry x="485" y="370" width="125" height="30" as="geometry" />
        </mxCell>
        <mxCell id="izeX7NdQ2_mp5u6DSLp3-60" value="&lt;font style=&quot;font-size: 14px;&quot;&gt;processed client data&amp;nbsp;&lt;/font&gt;" style="text;html=1;align=center;verticalAlign=middle;whiteSpace=wrap;rounded=0;" parent="1" vertex="1">
          <mxGeometry x="530" y="110" width="140" height="30" as="geometry" />
        </mxCell>
        <mxCell id="izeX7NdQ2_mp5u6DSLp3-62" value="&lt;font style=&quot;font-size: 15px;&quot;&gt;owner directory&amp;nbsp;&lt;/font&gt;" style="text;html=1;align=center;verticalAlign=middle;whiteSpace=wrap;rounded=0;" parent="1" vertex="1">
          <mxGeometry x="565" y="181" width="120" height="30" as="geometry" />
        </mxCell>
        <mxCell id="SgkkZAWsrq16EoUx3msd-1" value="services info&amp;nbsp;" style="text;html=1;align=center;verticalAlign=middle;whiteSpace=wrap;rounded=0;" parent="1" vertex="1">
          <mxGeometry x="595" y="290" width="60" height="30" as="geometry" />
        </mxCell>
      </root>
    </mxGraphModel>
  </diagram>
</mxfile>
